dataset
version=1
nRows=28
nColumns=39
inDegrees=no
endheader
time	sternoclavicular_r2	sternoclavicular_r3	unrotscap_r3	unrotscap_r2	acromioclavicular_r2	acromioclavicular_r3	acromioclavicular_r1	unrothum_r1	unrothum_r3	unrothum_r2	elv_angle	shoulder_elv	shoulder1_r2	shoulder_rot	elbow_flexion	pro_sup	deviation	flexion	cmc_abduction	cmc_flexion	mp_flexion	ip_flexion	mcp2_flexion	mcp2_abduction	pm2_flexion	md2_flexion	mcp3_flexion	mcp3_abduction	pm3_flexion	md3_flexion	mcp4_flexion	mcp4_abduction	pm4_flexion	md4_flexion	mcp5_flexion	mcp5_abduction	pm5_flexion	md5_flexion
1.930000	-0.037987	-0.404773	0.224426	0.191508	0.168344	0.113233	-0.200659	-0.004039	0.024747	0.200787	0.188674	0.027437	0.146525	0.146525	1.597866	1.264868	0.000000	0.000000	0.000000	0.000000	0.000000	0.000000	0.000000	0.000000	0.000000	0.000000	0.000000	0.000000	0.000000	0.000000	0.000000	0.000000	0.000000	0.000000	0.000000	0.000000	0.000000	0.000000
1.935000	-0.037895	-0.404661	0.224348	0.191276	0.168042	0.113573	-0.200431	-0.004019	0.025017	0.200415	0.188405	0.027437	0.146525	0.146525	1.601580	1.264730	0.000000	0.000000	0.000000	0.000000	0.000000	0.000000	0.000000	0.000000	0.000000	0.000000	0.000000	0.000000	0.000000	0.000000	0.000000	0.000000	0.000000	0.000000	0.000000	0.000000	0.000000	0.000000
1.940000	-0.037801	-0.404541	0.224260	0.191042	0.167739	0.113922	-0.200188	-0.003999	0.025304	0.200038	0.188136	0.027437	0.146525	0.146525	1.605306	1.264593	0.000000	0.000000	0.000000	0.000000	0.000000	0.000000	0.000000	0.000000	0.000000	0.000000	0.000000	0.000000	0.000000	0.000000	0.000000	0.000000	0.000000	0.000000	0.000000	0.000000	0.000000	0.000000
1.945000	-0.037705	-0.404412	0.224161	0.190808	0.167432	0.114280	-0.199929	-0.003981	0.025609	0.199658	0.187867	0.027437	0.146525	0.146525	1.609046	1.264457	0.000000	0.000000	0.000000	0.000000	0.000000	0.000000	0.000000	0.000000	0.000000	0.000000	0.000000	0.000000	0.000000	0.000000	0.000000	0.000000	0.000000	0.000000	0.000000	0.000000	0.000000	0.000000
1.950000	-0.037606	-0.404274	0.224050	0.190572	0.167123	0.114646	-0.199653	-0.003964	0.025930	0.199273	0.187600	0.027437	0.146525	0.146525	1.612799	1.264321	0.000000	0.000000	0.000000	0.000000	0.000000	0.000000	0.000000	0.000000	0.000000	0.000000	0.000000	0.000000	0.000000	0.000000	0.000000	0.000000	0.000000	0.000000	0.000000	0.000000	0.000000	0.000000
1.955000	-0.037505	-0.404128	0.223928	0.190335	0.166811	0.115021	-0.199362	-0.003948	0.026269	0.198884	0.187333	0.027437	0.146525	0.146525	1.616566	1.264186	0.000000	0.000000	0.000000	0.000000	0.000000	0.000000	0.000000	0.000000	0.000000	0.000000	0.000000	0.000000	0.000000	0.000000	0.000000	0.000000	0.000000	0.000000	0.000000	0.000000	0.000000	0.000000
1.960000	-0.037401	-0.403974	0.223795	0.190097	0.166496	0.115405	-0.199054	-0.003932	0.026624	0.198491	0.187066	0.027437	0.146525	0.146525	1.620347	1.264051	0.000000	0.000000	0.000000	0.000000	0.000000	0.000000	0.000000	0.000000	0.000000	0.000000	0.000000	0.000000	0.000000	0.000000	0.000000	0.000000	0.000000	0.000000	0.000000	0.000000	0.000000	0.000000
1.965000	-0.037295	-0.403811	0.223651	0.189856	0.166177	0.115796	-0.198730	-0.003918	0.026997	0.198093	0.186800	0.027437	0.146525	0.146525	1.624143	1.263916	0.000000	0.000000	0.000000	0.000000	0.000000	0.000000	0.000000	0.000000	0.000000	0.000000	0.000000	0.000000	0.000000	0.000000	0.000000	0.000000	0.000000	0.000000	0.000000	0.000000	0.000000	0.000000
1.970000	-0.037187	-0.403640	0.223494	0.189614	0.165856	0.116197	-0.198389	-0.003903	0.027385	0.197690	0.186533	0.027437	0.146525	0.146525	1.627955	1.263782	0.000000	0.000000	0.000000	0.000000	0.000000	0.000000	0.000000	0.000000	0.000000	0.000000	0.000000	0.000000	0.000000	0.000000	0.000000	0.000000	0.000000	0.000000	0.000000	0.000000	0.000000	0.000000
1.975000	-0.037077	-0.403460	0.223326	0.189369	0.165530	0.116605	-0.198032	-0.003890	0.027790	0.197282	0.186266	0.027437	0.146525	0.146525	1.631783	1.263649	0.000000	0.000000	0.000000	0.000000	0.000000	0.000000	0.000000	0.000000	0.000000	0.000000	0.000000	0.000000	0.000000	0.000000	0.000000	0.000000	0.000000	0.000000	0.000000	0.000000	0.000000	0.000000
1.980000	-0.036964	-0.403273	0.223147	0.189123	0.165201	0.117022	-0.197659	-0.003876	0.028210	0.196869	0.185999	0.027437	0.146525	0.146525	1.635629	1.263516	0.000000	0.000000	0.000000	0.000000	0.000000	0.000000	0.000000	0.000000	0.000000	0.000000	0.000000	0.000000	0.000000	0.000000	0.000000	0.000000	0.000000	0.000000	0.000000	0.000000	0.000000	0.000000
1.985000	-0.036849	-0.403077	0.222955	0.188874	0.164868	0.117446	-0.197269	-0.003862	0.028647	0.196450	0.185732	0.027437	0.146525	0.146525	1.639492	1.263384	0.000000	0.000000	0.000000	0.000000	0.000000	0.000000	0.000000	0.000000	0.000000	0.000000	0.000000	0.000000	0.000000	0.000000	0.000000	0.000000	0.000000	0.000000	0.000000	0.000000	0.000000	0.000000
1.990000	-0.036732	-0.402873	0.222751	0.188622	0.164532	0.117879	-0.196862	-0.003848	0.029098	0.196027	0.185464	0.027437	0.146525	0.146525	1.643373	1.263252	0.000000	0.000000	0.000000	0.000000	0.000000	0.000000	0.000000	0.000000	0.000000	0.000000	0.000000	0.000000	0.000000	0.000000	0.000000	0.000000	0.000000	0.000000	0.000000	0.000000	0.000000	0.000000
1.995000	-0.036613	-0.402662	0.222536	0.188368	0.164191	0.118319	-0.196439	-0.003833	0.029565	0.195598	0.185195	0.027437	0.146525	0.146525	1.647274	1.263120	0.000000	0.000000	0.000000	0.000000	0.000000	0.000000	0.000000	0.000000	0.000000	0.000000	0.000000	0.000000	0.000000	0.000000	0.000000	0.000000	0.000000	0.000000	0.000000	0.000000	0.000000	0.000000
2.000000	-0.036492	-0.402443	0.222308	0.188111	0.163846	0.118766	-0.195999	-0.003817	0.030046	0.195163	0.184925	0.027437	0.146525	0.146525	1.651194	1.262989	0.000000	0.000000	0.000000	0.000000	0.000000	0.000000	0.000000	0.000000	0.000000	0.000000	0.000000	0.000000	0.000000	0.000000	0.000000	0.000000	0.000000	0.000000	0.000000	0.000000	0.000000	0.000000
2.005000	-0.036368	-0.402216	0.222068	0.187851	0.163498	0.119221	-0.195542	-0.003800	0.030542	0.194723	0.184654	0.027437	0.146525	0.146525	1.655135	1.262859	0.000000	0.000000	0.000000	0.000000	0.000000	0.000000	0.000000	0.000000	0.000000	0.000000	0.000000	0.000000	0.000000	0.000000	0.000000	0.000000	0.000000	0.000000	0.000000	0.000000	0.000000	0.000000
2.010000	-0.036243	-0.401981	0.221817	0.187589	0.163144	0.119684	-0.195069	-0.003782	0.031052	0.194277	0.184382	0.027437	0.146525	0.146525	1.659098	1.262729	0.000000	0.000000	0.000000	0.000000	0.000000	0.000000	0.000000	0.000000	0.000000	0.000000	0.000000	0.000000	0.000000	0.000000	0.000000	0.000000	0.000000	0.000000	0.000000	0.000000	0.000000	0.000000
2.015000	-0.036116	-0.401740	0.221553	0.187323	0.162787	0.120153	-0.194579	-0.003763	0.031575	0.193824	0.184108	0.027437	0.146525	0.146525	1.663083	1.262599	0.000000	0.000000	0.000000	0.000000	0.000000	0.000000	0.000000	0.000000	0.000000	0.000000	0.000000	0.000000	0.000000	0.000000	0.000000	0.000000	0.000000	0.000000	0.000000	0.000000	0.000000	0.000000
2.020000	-0.035987	-0.401491	0.221277	0.187054	0.162425	0.120630	-0.194073	-0.003741	0.032112	0.193366	0.183833	0.027437	0.146525	0.146525	1.667091	1.262470	0.000000	0.000000	0.000000	0.000000	0.000000	0.000000	0.000000	0.000000	0.000000	0.000000	0.000000	0.000000	0.000000	0.000000	0.000000	0.000000	0.000000	0.000000	0.000000	0.000000	0.000000	0.000000
2.025000	-0.035856	-0.401235	0.220989	0.186782	0.162059	0.121113	-0.193551	-0.003717	0.032662	0.192902	0.183557	0.027437	0.146525	0.146525	1.671123	1.262342	0.000000	0.000000	0.000000	0.000000	0.000000	0.000000	0.000000	0.000000	0.000000	0.000000	0.000000	0.000000	0.000000	0.000000	0.000000	0.000000	0.000000	0.000000	0.000000	0.000000	0.000000	0.000000
2.030000	-0.035723	-0.400973	0.220689	0.186506	0.161688	0.121604	-0.193012	-0.003690	0.033224	0.192432	0.183279	0.027437	0.146525	0.146525	1.675179	1.262214	0.000000	0.000000	0.000000	0.000000	0.000000	0.000000	0.000000	0.000000	0.000000	0.000000	0.000000	0.000000	0.000000	0.000000	0.000000	0.000000	0.000000	0.000000	0.000000	0.000000	0.000000	0.000000
2.035000	-0.035589	-0.400704	0.220377	0.186227	0.161312	0.122100	-0.192457	-0.003660	0.033798	0.191955	0.182998	0.027437	0.146525	0.146525	1.679260	1.262086	0.000000	0.000000	0.000000	0.000000	0.000000	0.000000	0.000000	0.000000	0.000000	0.000000	0.000000	0.000000	0.000000	0.000000	0.000000	0.000000	0.000000	0.000000	0.000000	0.000000	0.000000	0.000000
2.040000	-0.035453	-0.400429	0.220054	0.185945	0.160932	0.122603	-0.191887	-0.003628	0.034384	0.191472	0.182716	0.027437	0.146525	0.146525	1.683366	1.261959	0.000000	0.000000	0.000000	0.000000	0.000000	0.000000	0.000000	0.000000	0.000000	0.000000	0.000000	0.000000	0.000000	0.000000	0.000000	0.000000	0.000000	0.000000	0.000000	0.000000	0.000000	0.000000
2.045000	-0.035316	-0.400148	0.219718	0.185659	0.160548	0.123112	-0.191300	-0.003591	0.034981	0.190982	0.182432	0.027437	0.146525	0.146525	1.687498	1.261833	0.000000	0.000000	0.000000	0.000000	0.000000	0.000000	0.000000	0.000000	0.000000	0.000000	0.000000	0.000000	0.000000	0.000000	0.000000	0.000000	0.000000	0.000000	0.000000	0.000000	0.000000	0.000000
2.050000	-0.035177	-0.399861	0.219371	0.185370	0.160158	0.123628	-0.190697	-0.003550	0.035589	0.190487	0.182146	0.027437	0.146525	0.146525	1.691657	1.261707	0.000000	0.000000	0.000000	0.000000	0.000000	0.000000	0.000000	0.000000	0.000000	0.000000	0.000000	0.000000	0.000000	0.000000	0.000000	0.000000	0.000000	0.000000	0.000000	0.000000	0.000000	0.000000
2.055000	-0.035037	-0.399568	0.219012	0.185077	0.159764	0.124149	-0.190080	-0.003506	0.036206	0.189984	0.181857	0.027437	0.146525	0.146525	1.695843	1.261582	0.000000	0.000000	0.000000	0.000000	0.000000	0.000000	0.000000	0.000000	0.000000	0.000000	0.000000	0.000000	0.000000	0.000000	0.000000	0.000000	0.000000	0.000000	0.000000	0.000000	0.000000	0.000000
2.060000	-0.034896	-0.399270	0.218642	0.184780	0.159366	0.124676	-0.189446	-0.003456	0.036834	0.189476	0.181566	0.027437	0.146525	0.146525	1.700056	1.261458	0.000000	0.000000	0.000000	0.000000	0.000000	0.000000	0.000000	0.000000	0.000000	0.000000	0.000000	0.000000	0.000000	0.000000	0.000000	0.000000	0.000000	0.000000	0.000000	0.000000	0.000000	0.000000
2.065000	-0.034753	-0.398967	0.218261	0.184481	0.158963	0.125208	-0.188798	-0.003401	0.037471	0.188961	0.181273	0.027437	0.146525	0.146525	1.704297	1.261334	0.000000	0.000000	0.000000	0.000000	0.000000	0.000000	0.000000	0.000000	0.000000	0.000000	0.000000	0.000000	0.000000	0.000000	0.000000	0.000000	0.000000	0.000000	0.000000	0.000000	0.000000	0.000000
